<?xml version="1.0" encoding="utf-8"?>
<!-- Generator: Adobe Illustrator 28.0.0, SVG Export Plug-In . SVG Version: 6.00 Build 0)  -->
<svg version="1.1" id="Слой_1" xmlns="http://www.w3.org/2000/svg" xmlns:xlink="http://www.w3.org/1999/xlink" x="0px" y="0px"
	 viewBox="0 0 845.3608398 1000" style="enable-background:new 0 0 845.3608398 1000;" xml:space="preserve">
<style type="text/css">
	.st0{fill-rule:evenodd;clip-rule:evenodd;fill:#FFFFFF;}
	.st1{fill-rule:evenodd;clip-rule:evenodd;fill:#A22428;}
</style>
<rect id="logo-bg" class="st0" width="845.3608398" height="1000"/>
<path id="logo" class="st1" d="M762.8865967,916.494873h-23.7113647v-40.2062378h-9.2783813
	c-4.1237183,1.0309448-11.34021,13.4020996-28.8660278,40.2062378h-26.8040771
	c17.5257568-26.8041382,27.835022-44.3299561,34.0206299-47.4226685l0,0
	c-10.3092651-4.1237183-20.6185303-13.4020996-20.6185303-26.8041382c0-16.494812,11.34021-29.8969116,41.2371216-29.8969116
	h34.0206299V916.494873z M629.8969116,916.494873h-23.7113647v-56.7010498c0-5.1546021,0-11.34021,0-14.4329834l0,0
	c-3.0927734,4.1237183-6.1855469,8.2474365-11.3401489,13.4020996l-49.4845581,57.7319336h-21.6494751V812.3711548h23.7113647
	v52.5773315c0,4.1237183,0,11.3401489,0,16.494812l0,0c3.0927734-4.1237183,6.1855469-8.2474365,10.3092651-13.4020996
	l47.4226685-55.670105h23.7113037V916.494873H629.8969116z M516.494812,726.8041382h5.1546631
	c-2.0618896,2.0618286-3.0927734,5.1546021-5.1546631,7.2164307V726.8041382z M512.3711548,788.65979h-8.2474365
	c-1.0309143,0-1.0309143,0-1.0309143-1.0308838c0-1.0309448,0-1.0309448,1.0309143-1.0309448c0,0,4.1237488,0,6.1855469,0
	c0-2.0618286,0-396.907196,0-396.907196c0-1.0309143,1.0309143-1.0309143,1.0309143-1.0309143
	c1.0309143,0,1.0309143,0,1.0309143,1.0309143C512.3710938,389.6907654,512.3710938,788.65979,512.3711548,788.65979z
	 M406.1855774,428.8659668H254.6391907v241.2371216h-49.4845428c-1.0309296-2.0618286-3.0927734-4.1237183-4.123703-7.2164307
	h32.9897003c1.0309296,0,1.0309296,0,1.0309296-1.0309448c0-1.0308838,0-1.0308838-1.0309296-1.0308838h-34.0206146
	c-1.0309296-2.0618896-3.0927734-4.1237793-4.123703-7.2165527h20.6185608c1.0309296,0,1.0309296,0,1.0309296-1.0308838
	s-1.0309296-1.0308838-1.0309296-1.0308838h-21.6494904c-1.0309296-2.0618896-2.0618591-4.1237793-3.0927734-7.2165527h10.3092804
	c1.0309296,0,1.0309296,0,1.0309296-1.0308838c0-1.0309448,0-1.0309448-1.0309296-1.0309448h-11.34021
	c-42.2680511-82.4741821-76.2886658-187.6288452-79.3814468-305.1546021H123.71138
	c2.0618515,50.5154724,9.2783508,101.0309143,21.6494904,151.5464172
	c4.123703,16.494812,9.2783508,31.9587097,14.4329834,48.4535828c9.2783508,27.835083,20.6185608,55.670166,32.9897003,82.4742432
	l2.0618591-1.0308838c-12.3711395-26.8041382-23.7113342-54.6392212-32.9896851-82.4742432
	c-5.1546478-15.4639282-10.3092804-31.9587708-14.4329834-48.4536133
	c-13.4020691-50.5155029-20.6185608-101.0309448-21.6494827-151.5464172h527.835083c0,2.0618591,0,3.0927734,0,5.1546326
	h-76.2886963c-1.0308838,0-1.0308838,0-1.0308838,1.0309143s0,1.0309143,1.0308838,1.0309143h76.2886963
	c0,2.0618591,0,5.1546326,0,7.2165222h-76.2887573c-1.0308838,0-1.0308838,1.0309143-1.0308838,1.0309143
	c0,1.0308838,0,1.0308838,1.0308838,1.0308838h75.2577515c0,2.0618896,0,4.1237488,0,7.2165222h-75.2577515
	c-1.0308838,0-1.0308838,0-1.0308838,1.0309143s0,1.0309143,1.0308838,1.0309143h74.2268066c0,2.0618591,0,4.1237183,0,7.2164917
	h-74.2268066c-1.0308838,0-1.0308838,1.0309143-1.0308838,1.0309143c0,1.0309143,0,1.0309143,1.0308838,1.0309143h73.1958618
	c0,2.0618591,0,4.1237183-1.0308838,7.2164917h-72.164978c-1.0308838,0-1.0308838,0-1.0308838,1.0309143
	s0,1.0309143,1.0308838,1.0309143h72.164978c0,2.0618591,0,4.1237183-1.0309448,7.2164917h-73.1958618
	c-1.0308838,0-1.0308838,0-1.0308838,1.0309143s1.0308838,1.0309143,1.0308838,1.0309143h74.2268066
	c0,2.0618591,0,4.1237488-1.0309448,7.2165222h-72.164917c-1.0309448,0-1.0309448,1.0309143-1.0309448,1.0309143
	c0,1.0309143,1.0309448,1.0309143,1.0309448,1.0309143h72.164917c0,2.0618591,0,5.1546326-1.0308838,7.2164917h-73.1958618
	c-1.0309448,0-1.0309448,0-1.0309448,1.0309143s1.0309448,1.0309143,1.0309448,1.0309143h73.1958618
	c0,2.0618591-1.0309448,4.1237183-1.0309448,7.2164917h-72.164917c-1.0309448,0-1.0309448,1.0309143-1.0309448,1.0309143
	c0,1.0309143,1.0309448,1.0309143,1.0309448,1.0309143h71.1340332c0,2.0618591-1.0309448,4.1237183-1.0309448,7.2164917h-70.1030884
	c-1.0308838,0-1.0308838,0-1.0308838,1.0309143s1.0308838,1.0309143,1.0308838,1.0309143h70.1030884
	c0,2.0618591-1.0308838,5.1546326-1.0308838,7.2165222h-71.1340332c-1.0309448,0-1.0309448,1.0308838-1.0309448,1.0308838
	c0,1.0309143,0,1.0309143,1.0309448,1.0309143h71.1340332c0,2.0618896-1.0309448,4.1237488-1.0309448,7.2165222h-73.1958618
	c-1.0308838,0-1.0308838,0-1.0308838,1.0309143s1.0308838,1.0309143,1.0308838,1.0309143h72.164978
	c0,2.0618591-1.0309448,5.1546326-1.0309448,7.2164917h-72.164917c-1.0309448,0-1.0309448,1.0309143-1.0309448,1.0309143
	c0,1.0309143,0,1.0309143,1.0309448,1.0309143h71.1338501c0,2.0618591-1.0308838,4.1237183-1.0308838,7.2164917h-72.164978
	c-1.0308838,0-1.0308838,0-1.0308838,1.0309143s0,1.0309143,1.0308838,1.0309143h72.164978
	c0,2.0618591-1.0309448,4.1237183-1.0309448,7.2164917h-73.1958008c-1.0309448,0-1.0309448,0-1.0309448,1.0309143
	s1.0309448,1.0309143,1.0309448,1.0309143h72.164917c0,2.0618591-1.0308838,4.1237488-2.0618896,7.2165222h-73.1958618
	c-1.0308838,0-1.0308838,0-1.0308838,1.0309143c0,1.0308838,0,1.0308838,1.0308838,1.0308838h72.164978
	c-1.0308838,2.0618896-1.0308838,4.1237488-2.0618896,7.2165222h-74.2268066c-1.0309448,0-1.0309448,0-1.0309448,1.0309143
	s0,1.0309143,1.0309448,1.0309143h74.2268066c-1.0309448,2.0618591-1.0309448,4.1237183-2.0618896,7.2164917h-74.2268066
	c-1.0308838,0-1.0308838,0-1.0308838,1.0309143c0,0,0,1.0309143,1.0308838,1.0309143h74.2268066
	c-1.0308838,2.0618591-1.0308838,4.1237183-2.0618286,7.2164917h-76.2886963c-1.0308838,0-1.0308838,1.0309143-1.0308838,1.0309143
	c0,1.0309143,0,1.0309143,1.0308838,1.0309143h75.2577515c-1.0309448,2.0618896-1.0309448,4.1237183-2.0618896,7.2164917
	h-78.3505249c-1.0308838,0-1.0308838,0-1.0308838,1.0309448c0,1.0308838,0,1.0308838,1.0308838,1.0308838h77.3195801
	c-1.0308838,2.0618896-1.0308838,5.1546631-2.0618286,7.2164917h-78.3505249c-1.0308838,0-1.0308838,1.0309448-1.0308838,1.0309448
	c0,1.0308838,0,1.0308838,1.0308838,1.0308838h78.3505249c-1.0309448,2.0618896-1.0309448,4.1237183-2.0618896,7.2164917
	h-80.4123535c-1.0308838,0-1.0308838,0-1.0308838,1.0309448c0,1.0308838,1.0308838,1.0308838,1.0308838,1.0308838h79.3814697
	c-1.0309448,2.0618896-1.0309448,4.1237793-2.0618896,7.2165527h-82.4741821c-1.0309448,0-1.0309448,0-1.0309448,1.0308838
	s1.0309448,1.0308838,1.0309448,1.0308838h81.4432983c-1.0309448,2.0618896-1.0309448,5.1546631-2.0618896,7.2165527H527.835022
	c-1.0308838,0-1.0308838,0-1.0308838,1.0308838c0,1.0309448,1.0308838,1.0309448,1.0308838,1.0309448h83.505127
	c-1.0308838,2.0618286-2.0618286,5.1546021-2.0618286,7.2164917h-86.5979614c-1.0308838,0-1.0308838,0-1.0308838,1.0308838
	c0,1.0309448,1.0308838,1.0309448,1.0308838,1.0309448h85.5670776c-1.0309448,2.0618286-2.0618896,5.1546021-2.0618896,7.2164917
	H516.494812V387.628418h-12.3711243l0,0l0,0l-4.1237183,2.0618591L406.1855774,428.8659668z M497.9381409,788.65979
	c-7.2165222-3.0928345-85.5670166-37.1134033-88.6598206-39.175293v-316.494812
	c3.0927734-1.0309143,81.4432983-37.1133728,88.65979-40.2062073
	C497.9381104,392.7834778,497.9381104,788.65979,497.9381409,788.65979z M473.1958923,916.494873h-23.7113342v-43.2989502
	h-52.577301v43.2989502h-23.7113342V812.3711548h23.7113342v42.2680664h52.577301v-42.2680664h23.7113342V916.494873z
	 M313.4020691,916.494873l-11.34021-25.7731934h-39.1752625l-10.3092804,25.7731934h-23.7113342l44.3298798-104.1237183h17.5257874
	l46.3917542,104.1237183H313.4020691z M197.9381561,916.494873h-22.6804199v-57.7319336c0-4.1237183,0-7.2164917,0-11.34021l0,0
	c-1.0309296,3.0928345-5.1546478,8.2474365-7.216507,10.3092651l-21.6494904,29.8969116h-11.34021l-23.7113419-29.8969116
	c-2.0618515-3.0927734-5.1546402-6.1855469-7.2164917-10.3092651l0,0c0,4.1237183,0,7.2164917,0,10.3092651v57.7319336h-23.711319
	V812.3711548h22.6804047l29.896904,39.175293c3.0927887,4.1237183,6.1855774,8.2474365,8.2474213,11.34021l0,0
	c2.0618591-3.0928345,4.1237183-7.2164917,8.2474365-12.3710938l27.8350525-38.1443481h21.6494904V916.494873H197.9381561z
	 M404.1237183,713.4020386H276.2886658c-1.0309448,0-1.0309448-1.0309448-1.0309448-1.0309448
	c0-1.0308838,1.0309448-1.0308838,1.0309448-1.0308838h127.835022c1.0309143,0,1.0309143,1.0308838,1.0309143,1.0308838
	C406.1855774,712.3710938,405.1546326,713.4020386,404.1237183,713.4020386z M270.1030884,725.7731934h135.0515747
	c1.0309143,0,1.0309143,1.0309448,1.0309143,1.0309448c0,1.0308838-1.0309143,1.0308838-1.0309143,1.0308838H270.1030884
	c-1.0309143,0-1.0309143-1.0308838-1.0309143-1.0308838C268.0412292,726.8041382,269.0721741,725.7731934,270.1030884,725.7731934z
	 M405.1546326,476.2886658c0,1.0309143-1.0309143,1.0309143-1.0309143,1.0309143H276.2886658
	c-1.0309448,0-1.0309448-1.0309143-1.0309448-1.0309143c0-1.0309143,1.0309448-1.0309143,1.0309448-1.0309143h127.835022
	C404.1237183,474.2268066,405.1546326,475.2577209,405.1546326,476.2886658z M404.1237183,461.8556519H270.1030884
	c-1.0309143,0-1.0309143-1.0309143-1.0309143-1.0309143c0-1.0309143,1.0309143-1.0309143,1.0309143-1.0309143h134.0206299
	c1.0309143,0,1.0309143,1.0309143,1.0309143,1.0309143L404.1237183,461.8556519z M404.1237183,747.4226685h-144.329895V441.2370911
	h143.2989502c1.0309143,0,2.0618591,1.0309143,2.0618591,2.0618896c0,1.0309143-1.0309143,2.0618591-2.0618591,2.0618591
	c0,0-136.082489,0-140.2062073,0V744.329895c3.0927734,0,140.2062073,0,140.2062073,0
	c1.0309143,0,2.0618591,1.0308838,2.0618591,2.0617676C406.1855774,746.3917847,405.1546326,747.4226685,404.1237183,747.4226685z
	 M254.6391907,679.3814697h-44.329895c-1.0309296-2.0618286-3.0927734-4.1237183-4.123703-7.2164917h48.453598V679.3814697z
	 M254.6391907,688.6598511h-39.1752625c-1.0309296-2.0618286-3.0927734-4.1237793-4.123703-7.2164917h43.2989655V688.6598511z
	 M254.6391907,697.9381104h-32.9897003c-1.0309448-2.0618286-3.0927887-4.1237183-4.1237183-7.2164307h37.1134186V697.9381104z
	 M254.6391907,706.1855469h-27.8350677c-1.0309296-2.0618286-3.0927734-4.1237183-4.123703-7.2164307h31.9587708V706.1855469z
	 M254.6391907,715.4639282h-21.6494904c-2.0618744-2.0618286-3.0927887-4.1237183-5.1546478-7.2164307h25.7731934v7.2164307
	H254.6391907z M254.6391907,724.7423096H240.206192c-2.0618591-2.0618286-3.0927734-4.1237183-5.1546326-7.2164917h19.5876312
	V724.7423096z M254.6391907,734.0205688h-7.216507c-2.0618744-2.0618286-3.0927734-4.1237183-5.1546478-7.2164307h13.4020538
	v7.2164307H254.6391907z M254.6391907,744.329895c-2.0618744-2.0618286-4.1237183-5.1546631-6.1855774-8.2474976h6.1855774
	V744.329895z M49.484539,747.4226685v-11.3401489h189.6907196c3.0927734,4.1237183,6.1855774,8.2474365,9.2783508,11.3401489
	H49.484539z M49.484539,721.6494751h179.3814392c3.0927734,4.1237183,5.1546478,7.2164917,8.2474213,10.3092651H49.484539
	V721.6494751z M49.484539,707.2164917H219.587616c2.0618744,4.1237183,5.1546478,7.2164307,7.216507,10.3092651H49.484539
	V707.2164917z M49.484539,693.8144531h160.8247528c2.0618591,4.1237183,4.123703,7.2164917,7.216507,10.3092651H49.484539
	V693.8144531z M188.65979,672.164917v-15.4639282c1.0309296,2.0618896,2.0618591,4.1237183,3.0927734,6.1855469v9.2783813H188.65979
	z M174.2268066,672.164917v-45.3608398c1.0309296,2.0618896,2.0618591,4.1237183,3.0927734,7.2164917v38.1443481H174.2268066z
	 M158.7628784,672.164917v-78.3505249c1.0309296,3.0927734,2.0618591,5.1546631,3.0927887,8.2474365v71.1339722h-3.0927887
	V672.164917z M144.329895,672.164917V554.6391602c1.0309296,3.0927734,2.0618591,6.1855469,3.0927887,9.2783813V672.164917
	H144.329895z M128.8659821,672.164917V507.2164612c1.0309296,4.1237183,2.0618439,7.2165222,3.0927887,11.3401794V672.164917
	H128.8659821z M114.432991,672.164917V442.2680664c1.0309372,6.1855469,2.0618591,11.3401794,3.0927887,16.494812V672.164917
	H114.432991z M49.484539,678.3505249h151.5463867c2.0618591,4.1237793,4.123703,7.2164917,7.216507,11.34021H49.484539V678.3505249z
	 M54.6391754,672.164917h3.0927887V238.1443329h-3.0927887V672.164917z M69.0721664,672.164917h3.0927811V238.1443329h-3.0927811
	V672.164917z M84.5360794,672.164917h3.0927887V238.1443329h-3.0927887V672.164917z M98.9690781,672.164917h3.0927811V238.1443329
	h-3.0927811V672.164917z M653.6082764,318.5567017c0,2.0618591,0,4.1236877,0,6.1855774h-77.3195801
	c-1.0309448,0-1.0309448,0-1.0309448,1.0309143c0,1.0309448,1.0309448,1.0309448,1.0309448,1.0309448h77.3195801
	c0,2.0618591,0,4.1237183,0,6.1855469H110.3092728c0-4.1237183,0-9.2783508,0-13.4020691
	C156.7010345,318.5567017,608.2474365,317.5257568,653.6082764,318.5567017z M114.432991,308.247406h3.0927887v-70.1030884
	h-3.0927887V308.247406z M128.8659821,308.247406h3.0927887v-70.1030884h-3.0927887V308.247406z M144.329895,308.247406h3.0927887
	v-70.1030884h-3.0927887V308.247406z M158.7628784,308.247406h3.0927887v-70.1030884h-3.0927887V308.247406z
	 M174.2268066,308.247406h3.0927734v-70.1030884h-3.0927734V308.247406z M188.65979,308.247406h3.0927734v-70.1030884H188.65979
	V308.247406z M204.123703,308.247406h3.0927734v-70.1030884h-3.0927734V308.247406z M218.5567017,308.247406h3.0927887v-70.1030884
	h-3.0927887V308.247406z M234.0206299,308.247406h3.0927734v-70.1030884h-3.0927734V308.247406z M248.4536133,308.247406h3.0927734
	v-70.1030884h-3.0927734V308.247406z M263.9175415,308.247406h3.0927734v-70.1030884h-3.0927734V308.247406z
	 M278.3505249,308.247406h3.0927734v-70.1030884h-3.0927734V308.247406z M293.8144226,308.247406h3.0927734v-70.1030884h-3.0927734
	V308.247406z M308.247406,308.247406h3.0927734v-70.1030884h-3.0927734V308.247406z M323.7113342,308.247406h3.0927734v-70.1030884
	h-3.0927734V308.247406z M345.3608398,282.4742126c0-9.2783508-6.1855774-16.4948425-6.1855774-26.8041229
	s7.2165222-17.5257721,7.2165222-17.5257721h11.3401794c0,0-8.247406,8.247406-8.247406,17.5257721
	s6.1855469,17.5257721,6.1855469,26.8041229c0,10.3092957-5.1546326,18.5567017-11.3401794,25.7731934c0,0-9.2783813,0-11.34021,0
	C340.2061768,301.0309448,345.3608398,291.7525635,345.3608398,282.4742126z M362.8865967,255.6700897
	c0-10.3092804,7.2165222-17.5257721,7.2165222-17.5257721h11.3401794c0,0-8.247406,8.247406-8.247406,17.5257721
	s6.1855469,17.5257721,6.1855469,26.8041229c0,10.3092957-5.1546326,18.5567017-11.3401794,25.7731934c0,0-9.2783813,0-11.34021,0
	c8.247406-7.2164917,12.3711548-16.4948425,12.3711548-25.7731934
	C369.0721436,273.1958618,362.8865967,265.9793701,362.8865967,255.6700897z M386.5979309,255.6700897
	c0-10.3092804,7.2165222-17.5257721,7.2165222-17.5257721h11.3401794c0,0-8.247406,8.247406-8.247406,17.5257721
	s6.1855469,17.5257721,6.1855469,26.8041229c0,10.3092957-5.1546326,18.5567017-11.34021,25.7731934c0,0-9.2783508,0-11.3401794,0
	c8.247406-7.2164917,12.3711548-16.4948425,12.3711548-25.7731934
	C392.7834778,273.1958618,386.5979309,265.9793701,386.5979309,255.6700897z M410.3092651,255.6700897
	c0-10.3092804,7.2165222-17.5257721,7.2165222-17.5257721h11.3401794c0,0-8.247406,8.247406-8.247406,17.5257721
	s6.1855469,17.5257721,6.1855469,26.8041229c0,10.3092957-5.1546326,18.5567017-11.34021,25.7731934c0,0-9.2783508,0-11.3401794,0
	c8.247406-7.2164917,12.3711548-16.4948425,12.3711548-25.7731934S410.3092651,265.9793701,410.3092651,255.6700897z
	 M434.0205994,255.6700897c0-10.3092804,7.2164917-17.5257721,7.2164917-17.5257721h11.34021
	c0,0-8.247406,8.247406-8.247406,17.5257721s6.1855469,17.5257721,6.1855469,26.8041229
	c0,10.3092957-5.1546631,18.5567017-11.34021,25.7731934c0,0-9.2783508,0-11.3401794,0
	c7.2164917-7.2164917,12.3711548-16.4948425,12.3711548-25.7731934S434.0205994,265.9793701,434.0205994,255.6700897z
	 M458.7628784,308.247406h3.0927734v-70.1030884h-3.0927734V308.247406z M473.1958923,308.247406h3.0927734v-70.1030884h-3.0927734
	V308.247406z M487.6288452,308.247406h3.0927734v-70.1030884h-3.0927734V308.247406z M503.0927734,308.247406h3.0927734v-70.1030884
	h-3.0927734V308.247406z M518.5567017,308.247406h3.0927734v-70.1030884h-3.0927734V308.247406z M532.9896851,308.247406h3.0927734
	v-70.1030884h-3.0927734V308.247406z M548.4536133,308.247406h3.0927734v-70.1030884h-3.0927734V308.247406z
	 M562.8865967,308.247406h3.0927734v-70.1030884h-3.0927734V308.247406z M578.3505249,308.247406h3.0927734v-70.1030884h-3.0927734
	V308.247406z M592.7835083,308.247406h3.0927734v-70.1030884h-3.0927734V308.247406z M608.2474365,308.247406h3.0927734v-70.1030884
	h-3.0927734V308.247406z M622.6804199,308.247406h3.0927734v-70.1030884h-3.0927734V308.247406z M638.1443481,308.247406h3.0927734
	v-70.1030884h-3.0927734V308.247406z M652.5773315,308.247406h3.0927734v-70.1030884h-3.0927734V308.247406z
	 M697.9381104,474.2268066v-31.9587402h3.0928345v22.6804199C700,468.0412598,698.9691162,471.1340332,697.9381104,474.2268066z
	 M682.4741821,506.1855469v-62.8865662h3.0928345v57.7319336
	C684.5360718,502.0618591,683.505188,504.1237183,682.4741821,506.1855469z M668.0412598,527.835083v-85.5670166h3.0928345
	v81.4432983C670.1030884,524.7423096,669.0722046,525.7731934,668.0412598,527.835083z M652.5773315,543.2989502V442.2680664
	h3.0927734v97.9381104C654.6391602,541.2371216,653.6082764,542.2680054,652.5773315,543.2989502z M638.1443481,556.7010498
	v-62.8865967c1.0308838-4.1237183,2.0618896-9.2783813,3.0927734-13.4020691v73.1958923
	C640.2061768,554.6391602,639.1752319,555.670105,638.1443481,556.7010498z M622.6804199,565.9793701v-21.6494141
	c1.0309448-3.0927734,2.0618896-7.2165527,3.0927734-10.3093262v29.8969727
	C624.7422485,564.9484253,623.7113647,565.9793701,622.6804199,565.9793701z M760.8247681,388.65979
	c0,3.0927734,0,6.1855774-1.0308838,9.2783813v3.0927734c-9.2783813,104.1236877-77.3195801,192.7835083-170.1030884,225.7731934
	c7.2164917-14.4329834,13.4020386-29.8969116,19.5876465-45.3608398
	c56.7009888-24.7422485,94.8452759-76.2886658,108.2473755-149.4845276l1.0309448-4.1237183c0,0-31.9587402,0-65.9794312,0
	c2.0618896-13.4020691,4.1237183-25.7731934,5.1546631-39.1752625H760.8247681z M668.0412598,378.3505249h3.0928345v-140.206192
	h-3.0928345V378.3505249z M682.4741821,378.3505249h3.0928345v-140.206192h-3.0928345V378.3505249z M697.9381104,378.3505249
	h3.0928345v-140.206192h-3.0928345V378.3505249z M712.3710938,378.3505249h3.0928345v-140.206192h-3.0928345V378.3505249z
	 M727.835022,378.3505249h3.0928345v-140.206192h-3.0928345V378.3505249z M742.2680664,378.3505249h3.0927734v-140.206192
	h-3.0927734V378.3505249z M757.7319336,378.3505249h3.0928345v-140.206192h-3.0928345V378.3505249z M771.1340332,388.65979
	c-3.0927734,117.5257568-80.4123535,218.5567017-186.5979614,249.4845581
	c1.0309448-3.0927734,3.0927734-5.1546631,4.1237183-8.2474365
	c98.9691162-34.0205688,170.1031494-130.9278259,175.2578125-242.2680359h7.2164307V388.65979z M772.164978,442.2680664
	c1.0308838-6.1855469,2.0618286-11.34021,3.0927734-17.5257874V672.164917h-3.0927734V442.2680664z M772.164978,378.3505249
	h3.0927734v-140.206192h-3.0927734V378.3505249z M787.6289062,672.164917h3.0927734V238.1443329h-3.0927734V672.164917z
	 M757.7319336,672.164917V489.6907349c1.0309448-3.092804,2.0618286-5.1546631,3.0928345-8.2474365V672.164917H757.7319336z
	 M742.2680664,672.164917V520.6185303c1.0308838-2.0618286,2.0618286-4.1237183,3.0927734-6.1855469V672.164978
	C745.3608398,672.164978,742.2680664,672.164978,742.2680664,672.164917z M727.835022,672.164917V545.3608398
	c1.0309448-2.0618896,2.0618286-3.0927734,3.0928345-5.1546631V672.164978
	C730.9278564,672.164978,727.835022,672.164978,727.835022,672.164917z M712.3710938,672.164917V564.9484253
	c1.0309448-1.0308838,2.0618286-3.0927734,3.0928345-4.1237183v111.34021H712.3710938z M697.9381104,672.164917v-90.7216187
	c1.0309448-1.0309448,2.0618286-2.0618896,3.0928345-3.0927734v93.8143921H697.9381104z M682.4741821,672.164917v-76.2886963
	c1.0309448-1.0308838,2.0618286-2.0618286,3.0928345-3.0927734v79.3814697H682.4741821z M668.0412598,672.164917v-63.9174805
	c1.0309448-1.0309448,2.0618286-2.0618896,3.0928345-2.0618896v67.010376h-3.0928345V672.164917z M652.5773315,672.164917
	v-53.6082153c1.0308838-1.0308838,2.0618286-1.0308838,3.0927734-2.0618896v55.670105H652.5773315z M638.1443481,672.164917
	v-44.329895c1.0308838-1.0308838,2.0618896-1.0308838,3.0927734-2.0618286v46.3917236H638.1443481z M622.6804199,672.164917
	v-36.0824585c1.0309448-1.0309448,2.0618896-1.0309448,3.0927734-2.0618896v38.1443481H622.6804199z M608.2474365,672.164917
	v-29.8969116c1.0308838,0,2.0618286-1.0309448,3.0927734-1.0309448v30.9278564H608.2474365z M592.7835083,672.164917v-24.7423096
	c1.0308838,0,2.0618896-1.0308838,3.0927734-1.0308838v25.7731934H592.7835083z M795.8762817,690.7216797H555.670105
	c1.0309448-1.0309448,2.0618896-2.0618286,2.0618896-4.1237793h101.0308838c1.0309448,0,2.0618286-1.0308838,2.0618286-2.0618286
	c0-1.0308838-1.0308838-2.0617676-2.0618286-2.0617676h-98.9691162c1.0309448-1.0309448,2.0618896-3.0928345,3.0927734-4.1237793
	h234.0206299v12.3711548H795.8762817z M795.8762817,704.1237183H546.3917236
	c1.0309448-1.0308838,2.0618896-2.0618286,2.0618896-4.1237183h90.7216187c1.0309448,0,2.0618896-1.0308838,2.0618896-2.0618286
	c0-1.0308838-1.0308838-2.0618286-2.0618896-2.0618286h-88.659729c1.0308838-1.0308838,2.0618286-3.0927734,2.0618286-4.1237183
	h243.2990112C795.8763428,691.7526245,795.8763428,704.1237183,795.8762817,704.1237183z M795.8762817,718.5566406H537.1134033
	c1.0308838-1.0308838,2.0618286-2.0617676,3.0927734-4.1237183h77.3195801c1.0308838,0,2.0618286-1.0308838,2.0618286-2.0618286
	c0-1.0308838-1.0308838-2.0618286-2.0618286-2.0618286h-75.2577515c1.0309448-1.0308838,2.0618896-2.0617676,2.0618896-4.1237183
	h251.5463867V718.5566406z M795.8762817,732.9896851H526.8041382c1.0308838-1.0309448,2.0618286-2.0618286,3.0927734-4.1237183
	h65.9793701c1.0308838,0,2.0618896-1.0309448,2.0618896-2.0618286c0-1.0309448-1.0309448-2.0618286-2.0618896-2.0618286h-62.8865967
	c1.0309448-1.0309448,2.0618896-2.0618286,3.0927734-4.1237183h260.8247681v12.3710938H795.8762817z M527.835083,718.5566406
	c-2.0618896,2.0618286-3.0927734,4.1237793-5.1546631,7.2164917h-7.2164917v-7.2164917H527.835083z M534.0206299,709.2783813
	c-2.0618896,2.0618286-3.0927734,5.1546631-5.1546631,7.2164917h-13.4020386v-7.2164917H534.0206299z M540.2061768,700
	c-1.0308838,2.0618286-3.0927734,4.1237183-4.1237183,7.2164917H516.494812V700H540.2061768z M546.3917236,690.7216797
	c-2.0618286,2.0617676-3.0927734,4.1237183-4.1237183,7.2164307H516.494812v-7.2164307H546.3917236z M551.5463867,681.4432983
	c-1.0308838,2.0618286-3.0927734,5.1546021-4.1237183,7.2164307H516.494812v-7.2164307H551.5463867z M556.7010498,672.164917
	c-1.0309448,2.0618286-3.0927734,5.1546631-4.1237183,7.2164917h-37.1134033v-7.2164917H556.7010498z M561.8556519,662.8866577
	c-1.0308838,2.0617676-2.0618286,5.1546021-4.1237183,7.2164307h-42.2680054v-7.2164307H561.8556519z M567.0103149,654.6391602
	c-1.0309448,2.0618896-2.0618896,4.1237183-4.1237183,7.2164917h-47.4226685v-7.2164917
	C515.4639282,654.6391602,567.0103149,654.6391602,567.0103149,654.6391602z M572.164978,645.3607788
	c-1.0309448,2.0618896-2.0618896,4.1237793-4.1237793,7.2165527h-52.5772705v-7.2165527H572.164978z M576.2886963,636.0824585
	c-1.0309448,2.0618896-2.0618896,4.1237793-3.0927734,7.2165527H516.494873v-7.2165527H576.2886963z M581.4432983,651.5463867
	v20.6185303h-3.0927734v-20.6185303C579.3814697,651.5463867,580.4123535,651.5463867,581.4432983,651.5463867z
	 M581.4432983,626.8041382c-1.0308838,2.0618286-2.0618286,4.1237183-3.0927734,7.2164917H516.494873v-7.2164917H581.4432983z
	 M585.5670166,617.5258179c-1.0309448,2.0618286-2.0618896,4.1237183-3.0927734,7.2164917H516.494812v-7.2164917H585.5670166z
	 M589.6907349,608.2474365c-1.0309448,2.0618286-2.0618896,4.1237183-3.0927734,7.2164917H516.494873v-7.2164917H589.6907349z
	 M593.8143921,600c-1.0308838,2.0618896-2.0618286,5.1546631-3.0927734,7.2164917H516.494812V600H593.8143921z
	 M597.9381714,590.7216187c-1.0309448,2.0618896-2.0618896,4.1237793-3.0927734,7.2165527H516.494873v-7.2165527H597.9381714z
	 M516.494812,579.3814697v-7.2164917h88.65979c-1.0308838,2.0618286-2.0618286,4.1237183-3.0927734,7.2164917H516.494812z
	 M601.0309448,581.4432983c-1.0309448,2.0618896-2.0618896,5.1546631-3.0927734,7.2164917h-82.4742432v-7.2164917H601.0309448z
	 M795.8762817,747.4226685H516.494812v-1.0308838c1.0309448-1.0309448,2.0618896-2.0618286,3.0927734-3.0928345h54.6391602
	c1.0309448,0,2.0618896-1.0308838,2.0618896-2.0618286c0-1.0308838-1.0308838-2.0618286-2.0618896-2.0618286h-51.5463867
	c1.0309448-1.0308838,2.0618896-2.0618286,3.0927734-4.1237183h271.1340332v12.3710938H795.8762817z M803.0927734,769.0721436
	H516.494812v-14.4329834h286.5979004V230.9278259H42.2680397v523.7113037h363.917511l32.9896851,14.4329834H42.2680397v189.6907349
	h760.824707V769.0721436z M552.5773315,92.7835083h-5.1546631v35.0515366h5.1546631
	c14.4329834,0,21.6494141-7.2164917,21.6494141-17.5257721C574.2268066,100,567.0103149,92.7835083,552.5773315,92.7835083z
	 M283.5051575,840.2061768l-12.3711548,32.9896851h24.7422791
	C294.8453674,873.1958618,283.5051575,843.2990112,283.5051575,840.2061768L283.5051575,840.2061768z M753.6082153,118.5567017
	v18.5567017H711.34021v27.8350525h49.4845581v18.5566864h-74.2267456V74.226799h74.2267456l-7.2165527,18.5567093H711.34021
	v25.7731934H753.6082153z M551.5463867,145.3608246h-4.1237183v38.1443481h-24.7423096v-38.1443329h-4.1237183
	c-36.0824585,0-47.4226379-21.6494827-47.4226379-36.0824738c0-23.7113419,17.5257568-35.0515518,44.3298645-35.0515518h41.2371216
	c26.8041382,0,44.329895,12.3711395,44.329895,35.0515518C598.9690552,123.7113419,587.6288452,145.3608246,551.5463867,145.3608246
	z M367.0102844,168.0412292c-11.3401794,10.3092804-26.8041077,16.4948425-45.3608093,16.4948425
	c-17.5257874,0-32.9897156-4.123703-43.2989502-13.4020538c-12.3711548-10.3092651-19.5876465-24.7422638-19.5876465-42.2680359
	c0-16.4948502,6.1855774-30.9278412,17.5257874-40.2061844c11.34021-10.3092804,26.8041382-16.4948425,45.3608398-16.4948425
	c19.5876465,0,36.0824585,6.1855621,47.4226379,16.4948425c10.3092957,10.3092804,15.4639282,23.7113419,15.4639282,39.1752625
	C383.5051575,144.329895,377.3195801,158.7628784,367.0102844,168.0412292z M148.453598,183.5051422l-41.2371063-47.4226837
	h-1.0309296v47.4226837H81.4432983V74.226799h24.7422714v45.3608322l0,0l40.2061844-45.3608246h28.8659821l-47.4226913,52.5773163
	l50.5154648,56.7010193H148.453598z M42.2680397,216.4948425h760.824707V42.2680397H42.2680397V216.4948425z M711.34021,844.329895
	c0,9.2783813,7.2164307,15.4639282,17.5257568,15.4639282h10.3092651v-29.8969116h-10.3092651
	C717.5257568,829.8969116,711.34021,836.0824585,711.34021,844.329895z M321.6495056,91.7525711
	c-20.6185608,0-36.082489,13.4020691-36.082489,37.1134109s15.4639282,38.1443329,36.082489,38.1443329
	c20.6185303,0,36.0824585-13.4020691,36.0824585-38.1443329C356.7010193,105.1546402,342.2680359,91.7525711,321.6495056,91.7525711
	z M494.8453674,110.3092728c0,11.34021,7.2164917,17.5257721,21.6494446,17.5257721h5.1546631V92.7835083h-5.1546631
	C502.0618591,92.7835083,494.8453674,100,494.8453674,110.3092728z M20.618557,979.3814697h804.1237183V20.618557H20.618557
	V979.3814697z M0,1000h845.3608398V0H0V1000z"/>
</svg>
