<svg xmlns="http://www.w3.org/2000/svg" width="194" height="57" viewBox="0 0 194 57" fill="none"><path d="M183.197 22.4258H188.656V47.3128H181.409V34.8693L170.773 47.3128H165.314V22.4258H172.562V34.8693L183.197 22.4258Z" fill="#500606"></path><path d="M152.89 22.4258H160.325V47.3128H152.89V39.8656C151.102 40.384 149.267 40.6668 147.431 40.6668C144.467 40.6668 142.067 39.9127 140.231 38.3573C138.396 36.8018 137.502 34.5394 137.502 31.617V22.4258H144.937V30.6272C144.937 32.654 146.255 33.6438 148.937 33.6438C150.443 33.6438 151.808 33.361 152.937 32.8425V22.4258H152.89Z" fill="#500606"></path><path d="M117.031 37.8859C117.878 40.1955 119.901 41.3739 123.007 41.3739C125.031 41.3739 126.631 40.7611 127.76 39.4885L133.737 42.9293C131.29 46.3701 127.666 48.0669 122.913 48.0669C118.725 48.0669 115.384 46.8415 112.89 44.3433C110.395 41.8452 109.172 38.7343 109.172 34.9164C109.172 31.1457 110.395 28.0348 112.842 25.5367C115.337 22.9914 118.49 21.7659 122.395 21.7659C126.019 21.7659 129.031 23.0386 131.384 25.5367C133.784 28.0348 135.007 31.1457 135.007 34.9164C135.007 36.0005 134.913 36.9904 134.725 37.8859H117.031ZM116.89 32.2769H127.572C126.866 29.6374 125.078 28.3648 122.301 28.3648C119.431 28.3648 117.595 29.6845 116.89 32.2769Z" fill="#500606"></path><path d="M94.7727 21.7188C98.0669 21.7188 100.843 22.9914 103.196 25.5367C105.502 28.0819 106.679 31.1457 106.679 34.8693C106.679 38.5929 105.502 41.6567 103.196 44.2491C100.89 46.7943 98.0669 48.0198 94.7727 48.0198C91.5727 48.0198 89.1257 47.03 87.3845 45.0032V56.2212H79.9492V22.4258H87.3845V24.7825C89.0786 22.7558 91.5727 21.7188 94.7727 21.7188ZM88.9845 39.2999C90.1139 40.384 91.5257 40.9496 93.2669 40.9496C95.008 40.9496 96.4198 40.384 97.5022 39.2999C98.6316 38.2158 99.1963 36.7075 99.1963 34.8693C99.1963 33.0311 98.6316 31.5228 97.5022 30.4387C96.4198 29.3546 95.008 28.789 93.2669 28.789C91.5257 28.789 90.1139 29.3546 88.9845 30.4387C87.9022 31.5228 87.3375 33.0311 87.3375 34.8693C87.3375 36.7547 87.9022 38.2158 88.9845 39.2999Z" fill="#500606"></path><path d="M77.1733 22.4258V29.5902H69.785V47.3128H62.3497V29.5902H54.8203V22.4258H77.1733Z" fill="#500606"></path><path d="M41.9265 48.0198C38.1618 48.0198 35.0088 46.7472 32.4676 44.2491C29.9735 41.7038 28.75 38.5929 28.75 34.8693C28.75 31.1457 29.9735 28.0348 32.4676 25.4896C35.0088 22.9443 38.1147 21.7188 41.9265 21.7188C44.3265 21.7188 46.4912 22.2844 48.4676 23.4628C50.4912 24.6411 52.0441 26.1494 53.1265 28.0819L46.6323 31.8527C45.7382 30.0145 44.1382 29.0718 41.8324 29.0718C40.1853 29.0718 38.8676 29.6374 37.7853 30.7215C36.7029 31.8056 36.1853 33.1725 36.1853 34.8693C36.1853 36.5661 36.7029 37.933 37.7853 39.0643C38.8676 40.1484 40.1853 40.6668 41.8324 40.6668C44.1853 40.6668 45.7853 39.7241 46.6323 37.8859L53.1265 41.6095C52.0441 43.5892 50.4912 45.1446 48.5147 46.2758C46.5853 47.4542 44.3735 48.0198 41.9265 48.0198Z" fill="#500606"></path><path d="M23.4787 34.5865C25.6904 35.7649 26.8199 37.6502 26.8199 40.1955C26.8199 42.3165 26.0669 44.0605 24.561 45.3803C23.1022 46.6529 21.0316 47.3128 18.3493 47.3128H4.9375V22.4258H17.361C20.0434 22.4258 22.114 23.0857 23.5728 24.4055C25.0787 25.6781 25.8316 27.4221 25.8316 29.5431C25.7846 31.7584 25.0316 33.4081 23.4787 34.5865ZM16.561 28.4119H11.9022V31.8998H16.561C18.0199 31.8998 18.7257 31.3342 18.7257 30.203C18.7257 29.0246 18.0199 28.4119 16.561 28.4119ZM17.361 41.1382C18.8199 41.1382 19.5257 40.5254 19.5257 39.2999C19.5257 38.1216 18.8199 37.556 17.361 37.556H11.8551V41.1382H17.361Z" fill="#500606"></path><path d="M89.5964 1.49812C90.0199 1.30958 90.7728 2.34654 90.5846 2.67648C90.3493 3.14782 81.8787 8.23834 77.5022 11.2549C80.3728 10.925 81.0317 12.1034 81.3611 13.2817C81.4081 13.376 81.314 13.5645 81.1728 13.8002C85.0787 12.1034 90.5375 10.1709 95.4317 9.4167C95.7611 9.36957 96.2787 10.4065 96.2787 10.7836C96.2787 11.0664 95.9493 11.4435 95.9493 11.4435C99.8081 9.74664 103.149 9.4167 103.667 9.74664C104.185 10.0766 104.702 11.2078 104.655 11.4435C104.608 11.632 104.138 12.2919 104.138 12.2919C105.973 11.1135 110.02 10.0295 110.49 10.2651C111.008 10.5008 111.479 11.1135 111.338 11.4435C111.149 11.7734 108.09 14.3187 108.655 15.497C109.22 16.6754 117.032 14.5072 121.879 12.2919C122.538 12.0091 125.079 9.93518 126.067 9.4167C126.538 9.18103 127.055 10.0766 127.055 10.5951C127.055 11.1135 122.02 13.8002 122.349 14.6486C123.102 16.4869 134.443 10.4537 135.102 10.1237C135.62 9.88805 136.42 11.1135 136.09 11.4906C135.855 11.7263 127.29 16.2041 121.314 18.5608C114.773 21.106 104.985 23.9341 104.373 23.9341C104.043 23.9341 103.385 22.9443 103.526 22.6143C103.714 22.2844 113.596 20.1162 122.632 16.3926C120.608 16.5811 120.138 15.0728 120.279 14.3658C120.279 14.3658 113.785 17.241 109.361 17.241C106.02 17.241 105.832 14.3658 108.185 12.3862C103.008 13.8945 99.6199 16.9111 99.6199 16.9111C99.6199 16.9111 98.3022 16.0627 98.2552 15.7327C98.2552 15.2142 101.267 13.376 102.443 11.3492C97.0787 12.1976 89.5493 16.7225 89.0317 16.7225C88.4199 16.7225 87.714 16.2983 87.8552 15.7327C88.0434 15.0728 93.2199 11.3492 93.2199 11.3492C87.9493 12.4333 84.7493 13.5174 79.7611 15.12C78.2552 16.2983 75.714 17.5238 72.7493 16.9111C72.2317 16.8168 71.2434 15.2614 71.5728 14.7429C71.9022 14.1773 72.3728 13.6117 72.9846 12.9518C69.7375 14.5544 64.8905 16.5811 61.3611 16.5811C57.5022 16.5811 58.0199 13.8945 58.4905 13.376C57.9728 13.8945 52.4669 17.0525 48.0905 17.0525C44.2317 17.0525 44.0905 14.5544 44.0434 14.1773C44.0434 13.8002 44.1846 13.5174 44.5611 13.3289C45.1728 13.0461 45.5493 13.1403 45.5493 13.5174C45.7375 16.2041 49.2199 16.0155 53.9258 13.8473C60.1375 10.9721 67.6669 5.59881 68.3258 5.26887C69.1728 4.84466 69.8316 6.58863 69.5022 6.77717C69.1728 6.96571 58.9611 13.6588 60.0905 14.6486C62.0669 16.3455 70.8199 12.6218 76.514 9.60524C76.5611 9.60524 76.5611 9.55811 76.6081 9.55811C80.8905 6.4001 86.114 3.19496 89.5964 1.49812ZM176.938 0.319756C183.573 -0.528664 193.549 -0.0101854 193.549 5.88162C193.549 11.8677 183.855 15.5913 177.267 15.6384C173.738 15.6384 171.385 14.9786 170.538 13.4703C169.361 14.8372 164.655 17.571 160.467 17.1467C158.773 16.9582 157.408 15.4499 157.596 14.79C157.69 14.5544 157.785 14.3187 157.926 14.083C154.349 15.6384 149.643 17.3353 146.349 17.3353C145.173 17.3353 144.42 16.1569 144.514 15.6384C144.702 14.3187 146.114 12.6218 147.385 11.962C143.714 12.4804 133.314 19.5035 129.926 21.2003C129.408 21.4831 128.09 20.6818 128.232 20.3519C128.373 20.0219 136.938 15.1671 148.373 7.43706C144.326 9.2753 137.973 12.1505 134.773 13.8002C134.585 13.8945 134.114 13.0461 134.255 12.9518C141.643 8.42688 152.608 3.90197 153.22 3.90197C153.832 3.90197 154.726 4.8918 154.396 5.41027C154.02 5.97589 152.232 6.07016 147.196 10.4537C148.89 9.79378 150.067 9.79378 150.396 10.1237C150.726 10.4537 151.243 11.1135 150.914 11.4906C150.538 11.8677 146.726 14.5072 146.867 15.8741C149.879 15.8741 155.949 13.8002 159.667 12.3862C162.349 10.4537 167.008 9.36957 170.02 10.8307C170.02 10.8307 170.443 10.2651 170.679 9.84091C170.914 9.36957 172.514 10.5008 172.373 11.0193C172.185 11.5378 171.526 12.339 171.526 12.3862C171.526 12.3862 171.855 14.3658 177.079 14.2244C183.62 14.0359 191.996 10.2651 191.996 6.25869C191.996 1.07391 183.29 1.21531 177.079 1.73379C171.055 2.25227 163.526 5.41027 163.196 5.59881C162.867 5.78735 162.538 4.98606 162.867 4.84466C163.196 4.51472 170.255 1.16818 176.938 0.319756ZM18.3493 12.3862C30.5846 4.84466 46.3493 1.45098 61.9258 3.14782C62.2552 3.19496 62.2552 3.99624 61.9258 3.99624C47.8552 3.6663 36.0905 4.51472 20.3258 13.2346C20.3258 13.2346 20.6552 14.9314 22.4905 14.9314C26.4905 14.9314 31.4317 12.9047 34.914 11.1607C35.1493 11.0664 37.314 9.51097 38.9611 8.70969C39.6199 8.37975 40.2787 9.55811 39.9493 9.69951C39.6199 9.88805 34.8669 12.9047 36.0905 13.2346C38.7728 13.8945 45.6434 9.88805 46.1611 9.55811C46.6787 9.22816 47.4787 10.1709 47.0081 10.5479C40.6552 15.7327 33.7846 18.6551 26.0669 20.1162C25.5964 20.2105 24.9375 18.8436 25.4081 18.7493C30.2552 17.7595 32.9846 16.7697 37.8316 14.6958C37.8316 14.6958 35.4317 15.1671 34.6317 14.1773C34.114 13.5174 34.114 12.8575 34.114 12.8104C34.0669 12.8104 28.2317 16.3455 22.5375 16.3455C20.1846 16.3455 19.1964 14.6486 19.1964 13.8473C15.9964 16.0155 14.8199 17.1939 14.4905 17.1939C14.1611 17.1939 13.314 16.3455 13.314 16.0155C13.314 15.6856 14.6787 13.6588 16.3258 11.962C9.50224 14.1301 5.92577 15.6384 0.561064 19.5035C0.32577 19.6449 -0.144818 19.2207 0.0434178 18.985C3.71401 14.9314 11.2905 11.2549 19.4787 9.4167C19.9022 9.32243 20.4669 10.2651 20.1375 10.4065C19.8552 10.7365 19.0081 11.3963 18.3493 12.3862ZM169.596 11.7263C167.243 10.7365 161.549 12.0562 159.855 14.7429C159.008 16.1098 163.196 15.4028 165.22 14.5544C167.29 13.7059 168.232 13.2817 169.596 11.7263ZM79.3846 12.9046C78.0199 12.2448 74.3493 14.2715 74.0199 15.2614C75.0081 15.7799 78.5375 14.083 79.3846 12.9046Z" fill="#500606"></path></svg>