<svg width="3580" height="792" viewBox="0 0 3580 792" fill="none" xmlns="http://www.w3.org/2000/svg">
<path d="M2617.94 255.648C2529.21 255.812 2427.52 322.731 2396.11 393.177C2365.77 461.572 2390.45 512.007 2455.81 518.404C2508.21 523.488 2553.73 502.986 2590.88 473.381C2587.44 483.878 2583.17 507.989 2584.07 517.174L2620.57 520.7C2623.85 489.619 2639.92 455.339 2663.87 423.356L2636.72 395.473C2636.72 395.473 2604.08 425.488 2524.78 417.533L2514.94 456.897C2527.49 459.44 2539.13 460.752 2550.12 461.162C2520.93 476.825 2489.6 487.569 2461.22 486.666C2410.21 485.19 2406.77 443.53 2441.3 394.571C2464.83 361.029 2525.85 308.708 2596.13 288.698C2638.53 276.807 2669.03 291.322 2621.88 327.898C2603.43 342.249 2573.33 361.439 2540.53 367.836L2576.69 398.343C2624.01 383.09 2653.53 360.455 2668.46 337.739C2695.36 295.915 2675.84 255.648 2617.94 255.812V255.648Z" fill="white"/>
<path d="M2882.43 268.198C2763.85 287.634 2661.83 419.176 2705.05 506.433L2747.04 492.492C2691.35 422.292 2817.56 311.335 2907.36 298.541C2955.58 291.571 2992.73 310.433 2966.49 364.64C2952.22 394.409 2908.1 445.665 2862.5 466.167C2798.45 495.198 2783.78 472.235 2801.16 439.432C2812.64 417.536 2838.64 390.965 2873.74 372.677L2853.56 341.268C2808.38 360.13 2762.37 409.089 2755.07 445.993C2742.03 511.518 2819.45 518.652 2869.8 500.036C2924.58 479.534 2974.12 442.384 2999.38 390.227C3038.9 309.203 2977.15 252.535 2882.6 268.198H2882.43Z" fill="white"/>
<path d="M2607.62 651.416C2545.3 651.416 2486.5 642.559 2435.24 625.091C2345.85 594.584 2289.67 541.36 2277.13 475.097C2264.58 408.835 2297.38 338.799 2369.55 277.703C2439.5 218.493 2538.73 174.372 2649.04 153.542C2759.34 132.63 2867.83 137.468 2954.6 167.073C3043.99 197.581 3100.16 250.804 3112.71 317.067C3125.26 383.33 3092.46 453.365 3020.29 514.462C2950.34 573.672 2851.1 617.792 2740.8 638.622C2695.7 647.151 2650.84 651.416 2607.62 651.416ZM2782.3 168.14C2740.8 168.14 2697.67 172.24 2654.12 180.441C2548.41 200.451 2453.61 242.357 2387.18 298.615C2322.89 352.987 2293.37 413.919 2304.03 470.013C2314.61 526.107 2364.38 572.032 2444.1 599.176C2526.43 627.223 2630.01 631.734 2735.72 611.724C2841.43 591.714 2936.23 549.807 3002.66 493.549C3066.95 439.178 3096.47 378.245 3085.81 322.152C3075.23 265.976 3025.46 220.133 2945.74 192.988C2897.28 176.504 2841.51 168.14 2782.3 168.14Z" fill="white"/>
<path d="M668.303 418.834C649.851 437.86 622.952 449.997 593.429 449.997H521.18V519.13H464.758V255.309H593.429C622.952 255.309 648.785 266.38 667.319 285.898C684.213 302.792 694.71 326 694.71 352.899C694.71 378.239 684.705 401.448 668.303 418.834ZM626.151 386.112C634.105 377.173 638.288 366.102 638.288 352.899C638.288 339.695 633.531 329.198 627.217 320.751C618.77 310.746 606.141 305.416 591.379 305.416H521.18V399.808H595.069C608.273 399.808 618.77 395.051 626.233 386.112" fill="white"/>
<path d="M820.262 255.309H763.266V519.048H820.262V255.309Z" fill="white"/>
<path d="M1148.9 255.309V519.048H1097.72L954.7 346.092V519.048H899.344V255.309H950.517L1094.03 427.855V255.309H1148.9Z" fill="white"/>
<path d="M1248.5 272.205C1270.15 255.885 1302.87 250.555 1336.58 250.555C1370.28 250.555 1406.2 257.443 1446.3 275.895L1426.21 320.754C1394.06 306.484 1366.59 300.744 1338.63 300.744C1321.24 300.744 1299.59 300.252 1287.45 310.257C1282.7 314.439 1280.07 319.77 1280.07 325.592C1280.07 331.415 1282.21 336.172 1286.96 339.862C1292.78 344.044 1301.72 347.243 1313.37 348.801L1365.61 357.74C1393 362.496 1418.91 370.369 1435.73 385.705C1448.93 397.842 1457.38 414.736 1457.38 437.944C1457.38 464.843 1448.44 482.803 1433.67 495.924C1409.97 517 1371.43 523.889 1329.77 523.889C1288.11 523.889 1256.95 517 1218.98 497.482L1238 451.066C1273.35 467.385 1299.75 472.716 1329.28 472.716C1357.24 472.716 1376.76 469.025 1387.83 462.137C1396.77 456.314 1401.53 448.441 1401.53 438.928C1401.53 431.055 1397.35 425.725 1391.52 422.035C1383.65 416.212 1371.51 413.588 1357.24 411.455L1298.69 400.876C1272.86 396.694 1253.34 387.673 1240.13 373.485C1229.06 361.348 1223.24 345.028 1223.24 324.936C1223.24 300.17 1233.25 284.342 1248.58 272.205" fill="white"/>
<path d="M1582.37 255.309V355.523H1627.8L1700.05 255.309H1766.48L1675.77 378.731L1772.79 519.048H1704.81L1629.36 406.204H1582.37V519.048H1525.95V255.309H1582.37Z" fill="white"/>
<path d="M1893.67 255.309H1836.67V519.048H1893.67V255.309Z" fill="white"/>
<path d="M2071.41 519.048V460.002L1959.55 255.309H2023.35L2099.37 398.824H2102.49L2176.87 255.309H2239.69L2127.83 460.002V519.048H2071.41Z" fill="white"/>
</svg>
